<?xml version="1.0" encoding="iso-8859-1"?>
<!-- Generator: Adobe Illustrator 19.1.0, SVG Export Plug-In . SVG Version: 6.00 Build 0)  -->
<svg version="1.1" id="Capa_1" xmlns="http://www.w3.org/2000/svg" xmlns:xlink="http://www.w3.org/1999/xlink" x="px" y="0px"
	 viewBox="0 0 487.4 487.4" style="enable-background:new 0 0 487.4 487.4;" xml:space="preserve" fill="#367dcb"> 
<g>
	<path id="XMLID_1818_" d="M409.1,290c-37.5,0-67.9,30.4-67.9,67.9c0,7.2,1.1,14.1,3.2,20.6c-27.3,23.3-62.6,37.4-101.2,37.4
		c-26.3,0-51-6.5-72.7-18c-10.1,23.3-28.9,42-52.1,52.2c36.8,24.2,79.8,37.3,124.9,37.3c58.6,0,113.9-22,156.3-62.2
		c3.1,0.4,6.3,0.7,9.6,0.7c37.5,0,67.9-30.4,67.9-67.9S446.6,290,409.1,290z M409.2,335.9c-12.2,0-22.1,9.9-22.1,22.1
		c0,5.6-4.5,10.1-10.1,10.1s-10.1-4.5-10.1-10.1c0-23.3,19-42.3,42.3-42.3c5.6,0,10.1,4.5,10.1,10.1
		C419.3,331.4,414.8,335.9,409.2,335.9z M404.1,98.8c-27.9-27.9-61.8-47.6-98.7-58.1C294.9,16.7,271,0,243.2,0
		c-37.5,0-67.9,30.4-67.9,67.9s30.4,67.9,67.9,67.9c20.5,0,38.9-9.1,51.3-23.5c60.5,21.1,104.1,78.4,104.8,145.8
		c3.2-0.3,6.5-0.5,9.8-0.5c22.9,0,44,7.7,60.9,20.7c0.5-6.1,0.7-12.3,0.7-18.5C470.8,198.9,447.1,141.7,404.1,98.8z M242.9,45.6
		c-12.2,0-22.1,9.9-22.1,22.1c0,5.6-4.5,10.1-10.1,10.1s-10.1-4.5-10.1-10.1c0-23.3,19-42.3,42.3-42.3c5.6,0,10.1,4.5,10.1,10.1
		C253.1,41.1,248.5,45.6,242.9,45.6z M90.2,291.1c-2.1-10.2-3.2-20.7-3.2-31.4c0-56.3,29.9-105.7,74.7-133.2
		c-11.9-16.5-19-36.8-19-58.7c0-4.4,0.3-8.7,0.8-12.9c-22.4,10.9-43.2,25.6-61.3,43.8c-43,43-66.7,100.1-66.7,160.9
		c0,20.1,2.6,39.7,7.6,58.6c-8,11.1-12.8,24.8-12.8,39.6c0,37.5,30.4,67.9,67.9,67.9s67.9-30.4,67.9-67.9
		C146.2,324.5,122,296.7,90.2,291.1z M78.2,335.9c-12.2,0-22.1,9.9-22.1,22.1c0,5.6-4.5,10.1-10.1,10.1s-10.1-4.5-10.1-10.1
		c0-23.3,19-42.3,42.3-42.3c5.6,0,10.1,4.5,10.1,10.1C88.3,331.4,83.8,335.9,78.2,335.9z"/>
</g>
<g>
</g>
<g>
</g>
<g>
</g>
<g>
</g>
<g>
</g>
<g>
</g>
<g>
</g>
<g>
</g>
<g>
</g>
<g>
</g>
<g>
</g>
<g>
</g>
<g>
</g>
<g>
</g>
<g>
</g>
</svg>
